<svg height="476pt" viewBox="0 -29 476 476" width="476pt" xmlns="http://www.w3.org/2000/svg"><path d="m388 232.003906h-300c0-82.84375 67.15625-150 150-150s150 67.15625 150 150zm0 0" fill="#e48e66"/><path d="m472.289062 418.882812c-19.335937 0-29.6875-7.761718-38-14-7.449218-5.585937-13.335937-10-26-10-12.667968 0-18.554687 4.414063-26 10-8.316406 6.238282-18.667968 14-38 14-19.332031 0-29.683593-7.761718-38-14-7.449218-5.585937-13.335937-10-26-10-12.667968 0-18.550781 4.414063-26 10-8.316406 6.238282-18.667968 14-38 14-19.335937 0-29.683593-7.761718-38-14-7.449218-5.585937-13.332031-10-26-10-12.667968 0-18.550781 4.414063-26 10-8.316406 6.238282-18.667968 14-38 14-19.335937 0-29.683593-7.761718-38-14-7.449218-5.585937-13.335937-10-26-10v-20c19.332032 0 29.683594 7.761719 38 14 7.449219 5.585938 13.332032 10 26 10 12.664063 0 18.546876-4.414062 26-10 8.316407-6.238281 18.664063-14 38-14 19.332032 0 29.679688 7.761719 38 14 7.445313 5.585938 13.332032 10 26 10 12.667969 0 18.550782-4.414062 26-10 8.316407-6.238281 18.664063-14 38-14 19.332032 0 29.683594 7.761719 38 14 7.449219 5.585938 13.332032 10 26 10 12.664063 0 18.550782-4.414062 26-10 8.316407-6.238281 18.667969-14 38-14 19.332032 0 29.683594 7.761719 38 14 7.449219 5.585938 13.332032 10 26 10zm0 0" fill="#f8ec7d"/><path d="m472.289062 348.882812c-19.335937 0-29.6875-7.761718-38-14-7.449218-5.585937-13.335937-10-26-10-12.667968 0-18.554687 4.414063-26 10-8.316406 6.238282-18.667968 14-38 14-19.332031 0-29.683593-7.761718-38-14-7.449218-5.585937-13.335937-10-26-10-12.667968 0-18.550781 4.414063-26 10-8.316406 6.238282-18.667968 14-38 14-19.335937 0-29.683593-7.761718-38-14-7.449218-5.585937-13.332031-10-26-10-12.667968 0-18.550781 4.414063-26 10-8.316406 6.238282-18.667968 14-38 14-19.335937 0-29.683593-7.761718-38-14-7.449218-5.585937-13.335937-10-26-10v-20c19.332032 0 29.683594 7.761719 38 14 7.449219 5.585938 13.332032 10 26 10 12.664063 0 18.546876-4.414062 26-10 8.316407-6.238281 18.664063-14 38-14 19.332032 0 29.679688 7.761719 38 14 7.445313 5.585938 13.332032 10 26 10 12.667969 0 18.550782-4.414062 26-10 8.316407-6.238281 18.664063-14 38-14 19.332032 0 29.683594 7.761719 38 14 7.449219 5.585938 13.332032 10 26 10 12.664063 0 18.550782-4.414062 26-10 8.316407-6.238281 18.667969-14 38-14 19.332032 0 29.683594 7.761719 38 14 7.449219 5.585938 13.332032 10 26 10zm0 0" fill="#f8ec7d"/><path d="m88 232.003906h150v-150c-82.84375 0-150 67.15625-150 150zm0 0" fill="#d18162"/><g fill="#f8ec7d"><path d="m228 0h20v46h-20zm0 0"/><path d="m106.339844 37.816406 17.320312-10 23 39.835938-17.320312 10zm0 0"/><path d="m25.8125 125.660156 10-17.320312 39.835938 23-10 17.320312zm0 0"/><path d="m0 222h46v20h-46zm0 0"/><path d="m430 222h46v20h-46zm0 0"/><path d="m400.347656 131.339844 39.839844-23 10 17.320312-39.839844 23zm0 0"/><path d="m321.339844 65.652344 23-39.839844 17.320312 10-23 39.839844zm0 0"/></g></svg>